<svg width="36" height="36" viewBox="0 0 36 36" fill="none" xmlns="http://www.w3.org/2000/svg">
<path d="M29.478 29.1075C30.306 28.935 30.801 28.068 30.3885 27.327C29.4795 25.6965 28.0485 24.2625 26.2185 23.1705C23.8605 21.7635 20.97 21 18 21C15.03 21 12.1395 21.762 9.78151 23.1705C7.95151 24.2625 6.52051 25.6965 5.61151 27.327C5.19901 28.068 5.69401 28.935 6.52201 29.1075C14.0922 30.6853 21.9063 30.6853 29.4765 29.1075" fill="#0080BB"/>
<path d="M18 19.5C22.1421 19.5 25.5 16.1421 25.5 12C25.5 7.85786 22.1421 4.5 18 4.5C13.8579 4.5 10.5 7.85786 10.5 12C10.5 16.1421 13.8579 19.5 18 19.5Z" fill="#0080BB"/>
</svg>
