<svg width="36" height="36" viewBox="0 0 36 36" fill="none" xmlns="http://www.w3.org/2000/svg">
<path d="M23.256 5.17145C24.2642 4.18651 25.62 3.63873 27.0294 3.64694C28.4388 3.65515 29.7881 4.21868 30.7848 5.21529C31.7814 6.21191 32.3449 7.56126 32.3531 8.97067C32.3613 10.3801 31.8135 11.7359 30.8286 12.7441L29.6226 13.9501L30.2274 14.5549C30.9023 15.23 31.2814 16.1455 31.2814 17.1001C31.2814 18.0546 30.9023 18.9701 30.2274 19.6452L28.5354 21.3373C28.3664 21.506 28.1373 21.6007 27.8985 21.6006C27.6596 21.6004 27.4307 21.5053 27.2619 21.3364C27.0931 21.1674 26.9984 20.9382 26.9986 20.6994C26.9988 20.4606 27.0938 20.2316 27.2628 20.0628L28.9548 18.3726C29.2923 18.0351 29.4818 17.5773 29.4818 17.1001C29.4818 16.6228 29.2923 16.165 28.9548 15.8275L28.35 15.2226L13.986 29.5884C13.3773 30.1999 12.6057 30.6236 11.763 30.8088L4.6962 32.3803C4.54827 32.4133 4.39438 32.4085 4.24882 32.3662C4.10326 32.3239 3.97073 32.2455 3.86355 32.1383C3.75636 32.0311 3.67799 31.8986 3.63569 31.753C3.59339 31.6075 3.58855 31.4536 3.6216 31.3057L5.202 24.1957C5.382 23.3821 5.7924 22.6351 6.381 22.0465L23.256 5.17145Z" fill="white" stroke="#87D9FF" stroke-width="2"/>
</svg>