<svg width="36" height="36" viewBox="0 0 36 36" fill="none" xmlns="http://www.w3.org/2000/svg">
<path d="M18 4.5C18 4.5 8.721 12.51 3.5355 16.848C3.37042 16.9917 3.23743 17.1685 3.14517 17.367C3.05291 17.5655 3.00345 17.7812 3 18C3 18.3978 3.15804 18.7794 3.43934 19.0607C3.72064 19.342 4.10218 19.5 4.5 19.5H7.5V30C7.5 30.3978 7.65804 30.7794 7.93934 31.0607C8.22064 31.342 8.60218 31.5 9 31.5H13.5C13.8978 31.5 14.2794 31.342 14.5607 31.0607C14.842 30.7794 15 30.3978 15 30V24H21V30C21 30.3978 21.158 30.7794 21.4393 31.0607C21.7206 31.342 22.1022 31.5 22.5 31.5H27C27.3978 31.5 27.7794 31.342 28.0607 31.0607C28.342 30.7794 28.5 30.3978 28.5 30V19.5H31.5C31.8978 19.5 32.2794 19.342 32.5607 19.0607C32.842 18.7794 33 18.3978 33 18C32.9979 17.777 32.9451 17.5574 32.8456 17.3578C32.746 17.1582 32.6024 16.9839 32.4255 16.848C27.276 12.51 18 4.5 18 4.5Z" fill="white" stroke="#87D9FF" stroke-width="2"/>
</svg>